<svg width="257" height="82" viewBox="0 0 257 82" fill="none" xmlns="http://www.w3.org/2000/svg">
<path d="M156.444 25.778C156.444 27.138 156.093 28.2827 155.39 29.212C154.687 30.1187 153.735 30.81 152.534 31.286C151.355 31.762 150.063 32 148.658 32H136.996V7.86H149.916C151.049 7.86 152.024 8.166 152.84 8.778C153.679 9.36733 154.313 10.138 154.744 11.09C155.197 12.0193 155.424 12.994 155.424 14.014C155.424 15.17 155.129 16.2693 154.54 17.312C153.951 18.3547 153.089 19.1253 151.956 19.624C153.339 20.032 154.427 20.7687 155.22 21.834C156.036 22.8993 156.444 24.214 156.444 25.778ZM151.718 24.894C151.718 24.282 151.593 23.738 151.344 23.262C151.095 22.7633 150.755 22.378 150.324 22.106C149.916 21.8113 149.44 21.664 148.896 21.664H141.688V28.022H148.658C149.225 28.022 149.735 27.886 150.188 27.614C150.664 27.3193 151.038 26.934 151.31 26.458C151.582 25.982 151.718 25.4607 151.718 24.894ZM141.688 11.872V17.958H147.944C148.465 17.958 148.941 17.8333 149.372 17.584C149.803 17.3347 150.143 16.9833 150.392 16.53C150.664 16.0767 150.8 15.5327 150.8 14.898C150.8 14.286 150.675 13.7533 150.426 13.3C150.199 12.8467 149.882 12.4953 149.474 12.246C149.089 11.9967 148.647 11.872 148.148 11.872H141.688ZM180.607 27.886V32H163.845V7.86H180.301V11.974H168.537V17.788H178.703V21.596H168.537V27.886H180.607ZM194.567 7.86H199.327L208.201 32H203.373L201.129 25.982H192.697L190.487 32H185.659L194.567 7.86ZM200.279 22.684L196.947 12.722L193.479 22.684H200.279ZM214.589 32V7.86H219.281V27.886H231.589V32H214.589ZM252.566 14.184C252.408 14.0253 252.113 13.81 251.682 13.538C251.274 13.266 250.764 13.0053 250.152 12.756C249.563 12.5067 248.917 12.2913 248.214 12.11C247.512 11.906 246.798 11.804 246.072 11.804C244.803 11.804 243.84 12.042 243.182 12.518C242.548 12.994 242.23 13.6627 242.23 14.524C242.23 15.1813 242.434 15.7027 242.842 16.088C243.25 16.4733 243.862 16.802 244.678 17.074C245.494 17.346 246.514 17.6407 247.738 17.958C249.325 18.3433 250.696 18.8193 251.852 19.386C253.031 19.93 253.926 20.6553 254.538 21.562C255.173 22.446 255.49 23.6247 255.49 25.098C255.49 26.39 255.252 27.5007 254.776 28.43C254.3 29.3367 253.643 30.0733 252.804 30.64C251.966 31.2067 251.014 31.626 249.948 31.898C248.883 32.1473 247.75 32.272 246.548 32.272C245.347 32.272 244.146 32.1473 242.944 31.898C241.743 31.6487 240.587 31.2973 239.476 30.844C238.366 30.368 237.346 29.8013 236.416 29.144L238.49 25.098C238.694 25.302 239.057 25.574 239.578 25.914C240.1 26.2313 240.734 26.56 241.482 26.9C242.23 27.2173 243.046 27.4893 243.93 27.716C244.814 27.9427 245.71 28.056 246.616 28.056C247.886 28.056 248.849 27.8407 249.506 27.41C250.164 26.9793 250.492 26.3673 250.492 25.574C250.492 24.8487 250.232 24.282 249.71 23.874C249.189 23.466 248.464 23.1147 247.534 22.82C246.605 22.5027 245.506 22.1627 244.236 21.8C242.718 21.3693 241.448 20.8933 240.428 20.372C239.408 19.828 238.649 19.148 238.15 18.332C237.652 17.516 237.402 16.496 237.402 15.272C237.402 13.6173 237.788 12.2347 238.558 11.124C239.352 9.99067 240.417 9.14067 241.754 8.574C243.092 7.98467 244.576 7.69 246.208 7.69C247.342 7.69 248.407 7.81467 249.404 8.064C250.424 8.31333 251.376 8.642 252.26 9.05C253.144 9.458 253.938 9.9 254.64 10.376L252.566 14.184Z" fill="white"/>
<path d="M18.2617 74L6.9057 61.964C5.9537 60.944 5.18303 60.0713 4.5937 59.346C4.02703 58.598 3.61903 57.918 3.3697 57.306C3.12036 56.694 2.9957 56.0367 2.9957 55.334C2.9957 54.178 3.27903 53.1693 3.8457 52.308C4.43503 51.424 5.22836 50.744 6.2257 50.268C7.2457 49.792 8.37903 49.554 9.6257 49.554C10.759 49.554 11.8017 49.758 12.7537 50.166C13.7284 50.5513 14.5217 51.1407 15.1337 51.934C15.7457 52.7273 16.0517 53.7133 16.0517 54.892C16.0517 55.9573 15.7797 56.9207 15.2357 57.782C14.7144 58.6433 14.0117 59.4367 13.1277 60.162C12.2437 60.8873 11.2464 61.59 10.1357 62.27C9.3197 62.7913 8.5717 63.3013 7.8917 63.8C7.23436 64.2987 6.71303 64.8313 6.3277 65.398C5.96503 65.942 5.7837 66.5427 5.7837 67.2C5.7837 67.8347 5.96503 68.424 6.3277 68.968C6.69036 69.512 7.18903 69.954 7.8237 70.294C8.48103 70.6113 9.20636 70.77 9.9997 70.77C10.9744 70.77 11.915 70.532 12.8217 70.056C13.751 69.58 14.5784 68.9113 15.3037 68.05C16.029 67.166 16.5957 66.112 17.0037 64.888C17.4344 63.664 17.6497 62.2927 17.6497 60.774H21.3557C21.3557 62.9273 21.027 64.8427 20.3697 66.52C19.7124 68.1747 18.8284 69.5913 17.7177 70.77C16.607 71.926 15.349 72.81 13.9437 73.422C12.5384 74.034 11.0764 74.34 9.5577 74.34C7.90303 74.34 6.4637 74.0113 5.2397 73.354C4.0157 72.674 3.0637 71.79 2.3837 70.702C1.72636 69.614 1.3977 68.4353 1.3977 67.166C1.3977 65.8967 1.69236 64.786 2.2817 63.834C2.87103 62.882 3.61903 62.0433 4.5257 61.318C5.43236 60.57 6.33903 59.9127 7.2457 59.346C8.24303 58.7113 9.0817 58.1787 9.7617 57.748C10.4417 57.2947 10.963 56.8527 11.3257 56.422C11.6884 55.9687 11.8697 55.4813 11.8697 54.96C11.8697 54.348 11.6544 53.8607 11.2237 53.498C10.8157 53.1127 10.283 52.92 9.6257 52.92C9.12703 52.92 8.68503 53.022 8.2997 53.226C7.93703 53.43 7.6537 53.702 7.4497 54.042C7.2457 54.382 7.1437 54.7673 7.1437 55.198C7.1437 55.5153 7.23436 55.8327 7.4157 56.15C7.6197 56.4673 7.9597 56.8867 8.4357 57.408C8.93436 57.9067 9.61436 58.6207 10.4757 59.55L24.2457 74H18.2617ZM42.4067 74V49.86H47.0987V69.886H59.4067V74H42.4067ZM65.2027 49.86L71.1527 61.216L77.2047 49.86H82.2707L73.4987 65.568V74H68.8407V65.5L60.1027 49.86H65.2027ZM97.4094 74.17C95.6414 74.17 94.0321 73.83 92.5814 73.15C91.1534 72.47 89.9181 71.552 88.8754 70.396C87.8554 69.2173 87.0621 67.9027 86.4954 66.452C85.9288 64.9787 85.6454 63.4713 85.6454 61.93C85.6454 60.3207 85.9401 58.7907 86.5294 57.34C87.1414 55.8667 87.9688 54.5633 89.0114 53.43C90.0768 52.274 91.3234 51.3673 92.7514 50.71C94.2021 50.03 95.7888 49.69 97.5114 49.69C99.2568 49.69 100.843 50.0413 102.271 50.744C103.722 51.4467 104.957 52.3873 105.977 53.566C106.997 54.7447 107.791 56.0593 108.357 57.51C108.924 58.9607 109.207 60.4567 109.207 61.998C109.207 63.5847 108.913 65.1147 108.323 66.588C107.734 68.0387 106.907 69.342 105.841 70.498C104.799 71.6313 103.552 72.5267 102.101 73.184C100.673 73.8413 99.1094 74.17 97.4094 74.17ZM90.4054 61.93C90.4054 62.9727 90.5641 63.9813 90.8814 64.956C91.1988 65.9307 91.6521 66.8033 92.2414 67.574C92.8534 68.322 93.5901 68.9227 94.4514 69.376C95.3354 69.8067 96.3328 70.022 97.4434 70.022C98.5768 70.022 99.5854 69.7953 100.469 69.342C101.353 68.866 102.09 68.2427 102.679 67.472C103.269 66.6787 103.711 65.806 104.005 64.854C104.323 63.8793 104.481 62.9047 104.481 61.93C104.481 60.8873 104.311 59.89 103.971 58.938C103.654 57.9633 103.189 57.102 102.577 56.354C101.988 55.5833 101.251 54.9827 100.367 54.552C99.5061 54.0987 98.5314 53.872 97.4434 53.872C96.2874 53.872 95.2674 54.11 94.3834 54.586C93.5221 55.0393 92.7968 55.6513 92.2074 56.422C91.6181 57.1927 91.1648 58.054 90.8474 59.006C90.5528 59.958 90.4054 60.9327 90.4054 61.93ZM121.239 58.496V74H116.547V49.86H120.287L132.765 65.772V49.894H137.457V74H133.547L121.239 58.496Z" fill="white"/>
</svg>
